{
  "accessors": [
    {
      "bufferView": 3,
      "componentType": 5126,
      "count": 2858,
      "max": [
        0.6902761459350586,
        1.8249845504760742,
        0.16584673523902893
      ],
      "min": [
        -0.6902761459350586,
        -3.6825372804256447e-17,
        -0.19437818229198456
      ],
      "type": "VEC3"
    },
    {
      "bufferView": 3,
      "byteOffset": 34296,
      "componentType": 5126,
      "count": 2858,
      "max": [
        1.0,
        0.9999737739562988,
        1.0
      ],
      "min": [
        -1.0,
        -1.0,
        -0.9999932050704956
      ],
      "type": "VEC3"
    },
    {
      "bufferView": 2,
      "componentType": 5126,
      "count": 2858,
      "max": [
        0.33257877826690674,
        0.008789122104644775
      ],
      "min": [
        0.32615652680397034,
        0.0053826868534088135
      ],
      "type": "VEC2"
    },
    {
      "bufferView": 1,
      "componentType": 5125,
      "count": 4368,
      "type": "SCALAR"
    },
    {
      "bufferView": 3,
      "byteOffset": 68592,
      "componentType": 5126,
      "count": 1248,
      "max": [
        0.5990490913391113,
        1.7085347175598145,
        0.1074596494436264
      ],
      "min": [
        -0.5990490913391113,
        0.1033392995595932,
        -0.16211257874965668
      ],
      "type": "VEC3"
    },
    {
      "bufferView": 3,
      "byteOffset": 83568,
      "componentType": 5126,
      "count": 1248,
      "max": [
        1.0,
        0.9991816282272339,
        1.0
      ],
      "min": [
        -1.0,
        -0.9987207651138306,
        -1.0
      ],
      "type": "VEC3"
    },
    {
      "bufferView": 2,
      "byteOffset": 22864,
      "componentType": 5126,
      "count": 1248,
      "max": [
        0.33257877826690674,
        0.010487407445907593
      ],
      "min": [
        0.13793069124221802,
        0.005976617336273193
      ],
      "type": "VEC2"
    },
    {
      "bufferView": 1,
      "byteOffset": 17472,
      "componentType": 5125,
      "count": 1896,
      "type": "SCALAR"
    },
    {
      "bufferView": 5,
      "componentType": 5126,
      "count": 55,
      "max": [
        1.0,
        0.9614427089691162,
        0.9853817224502563,
        0.0,
        0.5342769622802734,
        1.0,
        0.998466432094574,
        0.0,
        0.9936453700065613,
        0.9984464645385742,
        1.0,
        0.0,
        0.984565019607544,
        1.1163467168807983,
        1.0861002206802368,
        1.0
      ],
      "min": [
        -0.9999716281890869,
        -0.9614427089691162,
        -0.9853817224502563,
        0.0,
        -0.5342769622802734,
        -0.9943111538887024,
        -0.7467432618141174,
        0.0,
        -0.9936453700065613,
        -0.19671380519866943,
        -0.9769847989082336,
        0.0,
        -0.984565019607544,
        -1.6223971843719482,
        -1.4883415699005127,
        1.0
      ],
      "type": "MAT4"
    },
    {
      "bufferView": 0,
      "componentType": 5123,
      "count": 2858,
      "type": "VEC4"
    },
    {
      "bufferView": 4,
      "componentType": 5126,
      "count": 2858,
      "max": [
        1.0,
        0.4885498583316803,
        0.0,
        0.0
      ],
      "min": [
        0.5114501714706421,
        0.0,
        0.0,
        0.0
      ],
      "type": "VEC4"
    },
    {
      "bufferView": 0,
      "byteOffset": 22864,
      "componentType": 5123,
      "count": 1248,
      "type": "VEC4"
    },
    {
      "bufferView": 4,
      "byteOffset": 45728,
      "componentType": 5126,
      "count": 1248,
      "max": [
        1.0,
        0.3287811875343323,
        0.0,
        0.0
      ],
      "min": [
        0.6712188720703125,
        0.0,
        0.0,
        0.0
      ],
      "type": "VEC4"
    }
  ],
  "asset": {
    "extras": {
      "author": "RD3D Game Design (https://sketchfab.com/rd3dgamedesign)",
      "license": "CC-BY-4.0 (http://creativecommons.org/licenses/by/4.0/)",
      "source": "https://sketchfab.com/3d-models/ue-mannequin-demake-929c983369ec435196a215d29dd6d907",
      "title": "UE Mannequin Demake"
    },
    "generator": "Sketchfab-16.65.0",
    "version": "2.0"
  },
  "bufferViews": [
    {
      "buffer": 0,
      "byteLength": 32848,
      "byteStride": 8,
      "name": "shortBufferViews",
      "target": 34962
    },
    {
      "buffer": 0,
      "byteLength": 25056,
      "byteOffset": 32848,
      "name": "floatBufferViews",
      "target": 34963
    },
    {
      "buffer": 0,
      "byteLength": 32848,
      "byteOffset": 57904,
      "byteStride": 8,
      "name": "floatBufferViews",
      "target": 34962
    },
    {
      "buffer": 0,
      "byteLength": 98544,
      "byteOffset": 90752,
      "byteStride": 12,
      "name": "floatBufferViews",
      "target": 34962
    },
    {
      "buffer": 0,
      "byteLength": 65696,
      "byteOffset": 189296,
      "byteStride": 16,
      "name": "floatBufferViews",
      "target": 34962
    },
    {
      "buffer": 0,
      "byteLength": 3520,
      "byteOffset": 254992,
      "name": "floatBufferViews"
    }
  ],
  "buffers": [
    {
      "byteLength": 258512,
      "uri": "scene.bin"
    }
  ],
  "materials": [
    {
      "doubleSided": true,
      "name": "Body",
      "pbrMetallicRoughness": {
        "baseColorFactor": [
          0.8,
          0.8,
          0.8,
          1.0
        ],
        "metallicFactor": 0.0,
        "roughnessFactor": 0.8211145618000169
      }
    },
    {
      "doubleSided": true,
      "name": "Joints",
      "pbrMetallicRoughness": {
        "baseColorFactor": [
          0.0338957,
          0.0338957,
          0.0338957,
          1.0
        ],
        "metallicFactor": 0.0,
        "roughnessFactor": 0.992420691065506
      }
    }
  ],
  "meshes": [
    {
      "name": "mannequin_Body_0",
      "primitives": [
        {
          "attributes": {
            "JOINTS_0": 9,
            "NORMAL": 1,
            "POSITION": 0,
            "TEXCOORD_0": 2,
            "WEIGHTS_0": 10
          },
          "indices": 3,
          "material": 0,
          "mode": 4
        }
      ]
    },
    {
      "name": "mannequin_Joints_0",
      "primitives": [
        {
          "attributes": {
            "JOINTS_0": 11,
            "NORMAL": 5,
            "POSITION": 4,
            "TEXCOORD_0": 6,
            "WEIGHTS_0": 12
          },
          "indices": 7,
          "material": 1,
          "mode": 4
        }
      ]
    }
  ],
  "nodes": [
    {
      "children": [
        1
      ],
      "matrix": [
        1.0,
        0.0,
        0.0,
        0.0,
        0.0,
        2.220446049250313e-16,
        -1.0,
        0.0,
        0.0,
        1.0,
        2.220446049250313e-16,
        0.0,
        0.0,
        0.0,
        0.0,
        1.0
      ],
      "name": "Sketchfab_model"
    },
    {
      "children": [
        2
      ],
      "matrix": [
        1.0,
        0.0,
        0.0,
        0.0,
        0.0,
        0.0,
        1.0,
        0.0,
        0.0,
        -1.0,
        0.0,
        0.0,
        0.0,
        0.0,
        0.0,
        1.0
      ],
      "name": "dca9e22bf98b4073ac08d721644eabe3.fbx"
    },
    {
      "children": [
        3
      ],
      "name": "RootNode"
    },
    {
      "children": [
        4
      ],
      "matrix": [
        1.0,
        0.0,
        0.0,
        0.0,
        0.0,
        -1.6292067939183141e-07,
        -0.9999999999999868,
        0.0,
        0.0,
        0.9999999999999868,
        -1.6292067939183141e-07,
        0.0,
        0.0,
        0.0,
        0.0,
        1.0
      ],
      "name": "rig"
    },
    {
      "children": [
        5,
        7,
        8,
        6
      ],
      "name": "Object_4"
    },
    {
      "children": [
        9
      ],
      "name": "_rootJoint"
    },
    {
      "matrix": [
        1.0,
        0.0,
        0.0,
        0.0,
        0.0,
        6.123233995736766e-17,
        -1.0,
        0.0,
        0.0,
        1.0,
        6.123233995736766e-17,
        0.0,
        0.0,
        0.0,
        0.0,
        1.0
      ],
      "name": "Object_6"
    },
    {
      "mesh": 0,
      "name": "Object_7",
      "skin": 0
    },
    {
      "mesh": 1,
      "name": "Object_8",
      "skin": 0
    },
    {
      "children": [
        10
      ],
      "name": "root_01",
      "rotation": [
        -1.3234889800848443e-23,
        -0.0,
        0.0,
        1.0
      ]
    },
    {
      "children": [
        11,
        55,
        59
      ],
      "name": "DEF-spine_02",
      "rotation": [
        0.7689240574836731,
        6.1907425426115765e-24,
        -1.9971811014588598e-17,
        0.6393401026725769
      ],
      "translation": [
        -5.042071979191467e-18,
        0.02900896593928337,
        0.9369178414344788
      ]
    },
    {
      "children": [
        12
      ],
      "name": "DEF-spine.001_03",
      "rotation": [
        -0.06335381418466568,
        5.010834330539015e-18,
        5.8119178083563006e-18,
        0.997991144657135
      ],
      "translation": [
        3.0502285087892896e-24,
        0.12150000035762787,
        3.725290298461914e-09
      ]
    },
    {
      "children": [
        13
      ],
      "name": "DEF-spine.002_04",
      "rotation": [
        -0.06374545395374298,
        1.1896686658019462e-07,
        -7.599045837025642e-09,
        0.9979662895202637
      ],
      "scale": [
        1.0,
        0.9999997615814209,
        0.9999997615814209
      ],
      "translation": [
        -1.3142801334216563e-24,
        0.11420164257287979,
        -7.188646122813225e-09
      ]
    },
    {
      "children": [
        14,
        17,
        36
      ],
      "name": "DEF-spine.003_05",
      "rotation": [
        -0.06353329867124557,
        -1.1896845819592272e-07,
        -7.573750515632582e-09,
        0.9979798197746277
      ],
      "scale": [
        1.0,
        1.0000001192092896,
        1.0000001192092896
      ],
      "translation": [
        -2.220446049250313e-16,
        0.1320129632949829,
        -8.381903171539307e-09
      ]
    },
    {
      "children": [
        15
      ],
      "name": "DEF-spine.004_00",
      "rotation": [
        0.05055072903633118,
        6.873563946751399e-15,
        -8.525182479174245e-15,
        0.9987215995788574
      ],
      "scale": [
        1.0,
        1.0000001192092896,
        1.0000001192092896
      ],
      "translation": [
        -2.541098841762901e-21,
        0.18070219457149506,
        -1.862645149230957e-08
      ]
    },
    {
      "children": [
        16
      ],
      "name": "DEF-neck_06",
      "rotation": [
        0.13287192583084106,
        -1.1815225064992774e-07,
        -1.5839567879538663e-08,
        0.9911332130432129
      ],
      "scale": [
        1.0,
        0.9999998807907104,
        0.9999999403953552
      ],
      "translation": [
        -5.293955920339377e-22,
        0.10273373126983643,
        -7.450580596923828e-09
      ]
    },
    {
      "name": "DEF-head_07",
      "rotation": [
        -0.002490904415026307,
        2.3841786855882674e-07,
        4.650524795468573e-18,
        0.9999969005584717
      ],
      "translation": [
        -5.651945925166935e-16,
        0.07134388387203217,
        -5.551115123125783e-17
      ]
    },
    {
      "children": [
        18
      ],
      "name": "DEF-shoulder.L_08",
      "rotation": [
        -0.4861161410808563,
        -0.2899007499217987,
        -0.5866943001747131,
        0.5791704654693604
      ],
      "scale": [
        1.0000001192092896,
        1.0000001192092896,
        1.0
      ],
      "translation": [
        0.04591108486056328,
        0.26683294773101807,
        -0.019228748977184296
      ]
    },
    {
      "children": [
        19
      ],
      "name": "DEF-upper_arm.L_09",
      "rotation": [
        -0.24233002960681915,
        0.4230329096317291,
        -0.25845980644226074,
        0.8339771032333374
      ],
      "scale": [
        0.9999990463256836,
        1.000001311302185,
        0.9999993443489075
      ],
      "translation": [
        5.587935447692871e-09,
        0.12402108311653137,
        -2.253800630569458e-07
      ]
    },
    {
      "children": [
        20
      ],
      "name": "DEF-forearm.L_010",
      "rotation": [
        0.25041109323501587,
        1.414099415342207e-07,
        5.035917638451792e-07,
        0.9681397080421448
      ],
      "scale": [
        0.9999996423721313,
        1.0000014305114746,
        0.9999989867210388
      ],
      "translation": [
        7.450580596923828e-09,
        0.34086868166923523,
        -1.4007091522216797e-06
      ]
    },
    {
      "children": [
        21,
        24,
        27,
        30,
        33
      ],
      "name": "DEF-hand.L_011",
      "rotation": [
        -0.06134549155831337,
        -0.0028344830498099327,
        -0.0460708886384964,
        0.9970487356185913
      ],
      "scale": [
        1.0000011920928955,
        0.9999976754188538,
        1.0000011920928955
      ],
      "translation": [
        -3.958120942115784e-08,
        0.2790772616863251,
        1.4435499906539917e-08
      ]
    },
    {
      "children": [
        22
      ],
      "name": "DEF-f_index.01.L_012",
      "rotation": [
        0.13848066329956055,
        0.927640974521637,
        -0.15091460943222046,
        0.3122980296611786
      ],
      "scale": [
        1.0,
        0.9999997019767761,
        1.0000001192092896
      ],
      "translation": [
        0.02808244153857231,
        0.11350949108600616,
        0.02796507626771927
      ]
    },
    {
      "children": [
        23
      ],
      "name": "DEF-f_index.02.L_013",
      "rotation": [
        0.05689425393939018,
        -0.0001463424414396286,
        0.0025707893073558807,
        0.9983769059181213
      ],
      "scale": [
        1.0000001192092896,
        0.9999990463256836,
        1.0
      ],
      "translation": [
        2.9802322387695313e-08,
        0.04249977320432663,
        7.450580596923828e-08
      ]
    },
    {
      "name": "DEF-f_index.03.L_014",
      "rotation": [
        0.046408865600824356,
        3.4421671443851665e-05,
        -0.005888169631361961,
        0.9989051818847656
      ],
      "scale": [
        1.0,
        1.0000005960464478,
        1.0
      ],
      "translation": [
        5.960464477539063e-08,
        0.032000795006752014,
        -7.450580596923828e-08
      ]
    },
    {
      "children": [
        25
      ],
      "name": "DEF-f_middle.01.L_015",
      "rotation": [
        0.05083833634853363,
        0.8911191821098328,
        -0.11933543533086777,
        0.4348348379135132
      ],
      "scale": [
        1.0,
        1.0000001192092896,
        1.0000001192092896
      ],
      "translation": [
        0.008172376081347466,
        0.11521066725254059,
        0.010107241570949554
      ]
    },
    {
      "children": [
        26
      ],
      "name": "DEF-f_middle.02.L_016",
      "rotation": [
        0.10798049718141556,
        -0.0007861396297812462,
        0.007236677687615156,
        0.9941263794898987
      ],
      "scale": [
        1.0,
        0.9999987483024597,
        0.9999997615814209
      ],
      "translation": [
        2.421438694000244e-08,
        0.04504471644759178,
        9.778887033462524e-08
      ]
    },
    {
      "name": "DEF-f_middle.03.L_017",
      "rotation": [
        0.05378296971321106,
        3.9346516132354736e-05,
        -0.015269698575139046,
        0.998435914516449
      ],
      "scale": [
        1.0,
        1.000001311302185,
        1.0
      ],
      "translation": [
        -1.955777406692505e-08,
        0.033852752298116684,
        -5.587935447692871e-09
      ]
    },
    {
      "children": [
        28
      ],
      "name": "DEF-f_pinky.01.L_018",
      "rotation": [
        -0.04758724942803383,
        0.8069440722465515,
        -0.19523534178733826,
        0.5553916692733765
      ],
      "scale": [
        1.0,
        1.0000007152557373,
        0.9999999403953552
      ],
      "translation": [
        -0.013174905441701412,
        0.09564855694770813,
        -0.02890435792505741
      ]
    },
    {
      "children": [
        29
      ],
      "name": "DEF-f_pinky.02.L_019",
      "rotation": [
        0.026925506070256233,
        -0.00021752093743998557,
        0.008083990775048733,
        0.9996048212051392
      ],
      "scale": [
        1.0,
        0.9999991059303284,
        1.0
      ],
      "translation": [
        -4.8603396862745285e-09,
        0.03799883648753166,
        -1.0379153536632657e-08
      ]
    },
    {
      "name": "DEF-f_pinky.03.L_020",
      "rotation": [
        0.08366049081087112,
        0.0003433296224102378,
        -0.020210877060890198,
        0.9962893724441528
      ],
      "scale": [
        0.9999999403953552,
        1.0000009536743164,
        0.9999998211860657
      ],
      "translation": [
        1.234002411365509e-08,
        0.03249393031001091,
        -7.479684427380562e-09
      ]
    },
    {
      "children": [
        31
      ],
      "name": "DEF-f_ring.01.L_021",
      "rotation": [
        0.0021079021971672773,
        0.8153313398361206,
        -0.18910981714725494,
        0.5472365021705627
      ],
      "scale": [
        1.0000001192092896,
        1.0000004768371582,
        1.0000001192092896
      ],
      "translation": [
        -0.002916310913860798,
        0.10885735601186752,
        -0.010600157082080841
      ]
    },
    {
      "children": [
        32
      ],
      "name": "DEF-f_ring.02.L_022",
      "rotation": [
        0.062181998044252396,
        -0.00039923583972267807,
        0.006340069230645895,
        0.9980446100234985
      ],
      "scale": [
        1.0,
        0.9999998211860657,
        0.9999998807907104
      ],
      "translation": [
        -1.862645149230957e-09,
        0.04354565218091011,
        7.182825356721878e-08
      ]
    },
    {
      "name": "DEF-f_ring.03.L_023",
      "rotation": [
        0.059604205191135406,
        0.00014115309750195593,
        -0.015003610402345657,
        0.9981093406677246
      ],
      "scale": [
        0.9999999403953552,
        0.9999991059303284,
        0.9999998807907104
      ],
      "translation": [
        2.9802322387695313e-08,
        0.034281522035598755,
        6.949994713068008e-08
      ]
    },
    {
      "children": [
        34
      ],
      "name": "DEF-thumb.01.L_024",
      "rotation": [
        0.33978965878486633,
        0.9091765284538269,
        0.16665704548358917,
        -0.17368502914905548
      ],
      "scale": [
        1.0,
        1.0000008344650269,
        0.9999999403953552
      ],
      "translation": [
        0.029617371037602425,
        0.02617831528186798,
        0.0259389765560627
      ]
    },
    {
      "children": [
        35
      ],
      "name": "DEF-thumb.02.L_025",
      "rotation": [
        0.10914822667837143,
        -0.00207624607719481,
        0.018903525546193123,
        0.9938435554504395
      ],
      "scale": [
        1.0,
        0.9999980926513672,
        0.9999999403953552
      ],
      "translation": [
        3.073364496231079e-08,
        0.047039713710546494,
        1.4901161193847656e-08
      ]
    },
    {
      "name": "DEF-thumb.03.L_026",
      "rotation": [
        0.07539001107215881,
        0.0008224358316510916,
        -0.04878739267587662,
        0.9959595799446106
      ],
      "scale": [
        1.0,
        1.0000003576278687,
        1.0
      ],
      "translation": [
        6.705522537231445e-08,
        0.04852043092250824,
        7.450580596923828e-09
      ]
    },
    {
      "children": [
        37
      ],
      "name": "DEF-shoulder.R_027",
      "rotation": [
        -0.4861161410808563,
        0.2899007499217987,
        0.5866943001747131,
        0.5791704654693604
      ],
      "scale": [
        1.0000001192092896,
        1.0000001192092896,
        1.0
      ],
      "translation": [
        -0.04591108486056328,
        0.26683294773101807,
        -0.019228748977184296
      ]
    },
    {
      "children": [
        38
      ],
      "name": "DEF-upper_arm.R_028",
      "rotation": [
        -0.2423299103975296,
        -0.423032283782959,
        0.2584613859653473,
        0.8339769840240479
      ],
      "scale": [
        0.9999983906745911,
        1.0000027418136597,
        0.9999987483024597
      ],
      "translation": [
        5.029141902923584e-08,
        0.12402086704969406,
        -2.2351741790771484e-08
      ]
    },
    {
      "children": [
        39
      ],
      "name": "DEF-forearm.R_029",
      "rotation": [
        0.2504037320613861,
        -4.6366949391085654e-07,
        -4.670360453928879e-07,
        0.968141496181488
      ],
      "scale": [
        1.0000003576278687,
        1.0000005960464478,
        0.9999992847442627
      ],
      "translation": [
        3.129243850708008e-07,
        0.3408683240413666,
        -2.2798776626586914e-06
      ]
    },
    {
      "children": [
        40,
        43,
        46,
        49,
        52
      ],
      "name": "DEF-hand.R_030",
      "rotation": [
        -0.06134603172540665,
        0.002834356389939785,
        0.04607042297720909,
        0.9970487356185913
      ],
      "scale": [
        1.000001311302185,
        0.999997615814209,
        1.000001072883606
      ],
      "translation": [
        3.958120942115784e-09,
        0.2790772020816803,
        -3.259629011154175e-09
      ]
    },
    {
      "children": [
        41
      ],
      "name": "DEF-f_index.01.R_031",
      "rotation": [
        -0.1384805142879486,
        0.9276410341262817,
        -0.15091438591480255,
        -0.31229808926582336
      ],
      "scale": [
        1.0,
        0.9999998807907104,
        1.0
      ],
      "translation": [
        -0.028082814067602158,
        0.11351026594638824,
        0.02796589583158493
      ]
    },
    {
      "children": [
        42
      ],
      "name": "DEF-f_index.02.R_032",
      "rotation": [
        0.0568942092359066,
        0.00014633877435699105,
        -0.002570465439930558,
        0.9983769059181213
      ],
      "scale": [
        0.9999998211860657,
        1.0000003576278687,
        0.9999999403953552
      ],
      "translation": [
        -4.470348358154297e-08,
        0.042499810457229614,
        -5.587935447692871e-08
      ]
    },
    {
      "name": "DEF-f_index.03.R_033",
      "rotation": [
        0.046409204602241516,
        -3.446732080192305e-05,
        0.0058878627605736256,
        0.9989051818847656
      ],
      "scale": [
        1.0,
        1.0000008344650269,
        0.9999999403953552
      ],
      "translation": [
        -1.4901161193847656e-08,
        0.03200069069862366,
        1.30385160446167e-07
      ]
    },
    {
      "children": [
        44
      ],
      "name": "DEF-f_middle.01.R_034",
      "rotation": [
        -0.05083857476711273,
        0.8911190629005432,
        -0.1193355917930603,
        -0.434834748506546
      ],
      "scale": [
        0.9999999403953552,
        0.9999996423721313,
        1.0
      ],
      "translation": [
        -0.008172601461410522,
        0.11521122604608536,
        0.010108128190040588
      ]
    },
    {
      "children": [
        45
      ],
      "name": "DEF-f_middle.02.R_035",
      "rotation": [
        0.10797958821058273,
        0.0007861435296945274,
        -0.0072362227365374565,
        0.994126558303833
      ],
      "scale": [
        0.9999998211860657,
        1.0000003576278687,
        1.0
      ],
      "translation": [
        -1.1175870895385742e-08,
        0.045044705271720886,
        -6.146728992462158e-08
      ]
    },
    {
      "name": "DEF-f_middle.03.R_036",
      "rotation": [
        0.05378377437591553,
        -3.937918154406361e-05,
        0.015269474126398563,
        0.9984358549118042
      ],
      "scale": [
        1.0,
        1.0000005960464478,
        1.0
      ],
      "translation": [
        -2.2817403078079224e-08,
        0.03385293856263161,
        -2.421438694000244e-08
      ]
    },
    {
      "children": [
        47
      ],
      "name": "DEF-f_pinky.01.R_037",
      "rotation": [
        -0.04758746549487114,
        -0.8069442510604858,
        0.19523505866527557,
        0.5553916692733765
      ],
      "scale": [
        0.9999998807907104,
        0.9999991655349731,
        0.9999999403953552
      ],
      "translation": [
        0.013174607418477535,
        0.09564916789531708,
        -0.028903502970933914
      ]
    },
    {
      "children": [
        48
      ],
      "name": "DEF-f_pinky.02.R_038",
      "rotation": [
        0.026925424113869667,
        0.00021754702902399004,
        -0.00808397214859724,
        0.9996047616004944
      ],
      "scale": [
        0.9999998807907104,
        1.000000238418579,
        1.0
      ],
      "translation": [
        4.802132025361061e-09,
        0.03799890726804733,
        -5.7330908020958304e-08
      ]
    },
    {
      "name": "DEF-f_pinky.03.R_039",
      "rotation": [
        0.0836608037352562,
        -0.00034336638054810464,
        0.020210932940244675,
        0.9962892532348633
      ],
      "scale": [
        1.0000001192092896,
        1.0000014305114746,
        1.0
      ],
      "translation": [
        -6.28642737865448e-09,
        0.032493915408849716,
        -3.646709956228733e-08
      ]
    },
    {
      "children": [
        50
      ],
      "name": "DEF-f_ring.01.R_040",
      "rotation": [
        0.0021077280398458242,
        -0.8153313398361206,
        0.18910948932170868,
        0.5472366213798523
      ],
      "scale": [
        0.9999998807907104,
        0.9999996423721313,
        1.0000001192092896
      ],
      "translation": [
        0.0029158899560570717,
        0.10885808616876602,
        -0.010599406436085701
      ]
    },
    {
      "children": [
        51
      ],
      "name": "DEF-f_ring.02.R_041",
      "rotation": [
        0.06218287721276283,
        0.00039923956501297653,
        -0.00634005619212985,
        0.9980445504188538
      ],
      "scale": [
        1.0,
        0.9999995231628418,
        1.0
      ],
      "translation": [
        3.725290298461914e-09,
        0.04354560747742653,
        -5.8673322200775146e-08
      ]
    },
    {
      "name": "DEF-f_ring.03.R_042",
      "rotation": [
        0.059604670852422714,
        -0.00014113464567344636,
        0.01500375010073185,
        0.9981092810630798
      ],
      "scale": [
        0.9999999403953552,
        1.0000017881393433,
        1.0
      ],
      "translation": [
        2.7008354663848877e-08,
        0.03428138792514801,
        -1.291045919060707e-07
      ]
    },
    {
      "children": [
        53
      ],
      "name": "DEF-thumb.01.R_043",
      "rotation": [
        -0.339789479970932,
        0.9091765284538269,
        0.16665750741958618,
        0.173684760928154
      ],
      "scale": [
        1.0,
        0.9999997615814209,
        0.9999998807907104
      ],
      "translation": [
        -0.029617778956890106,
        0.026179049164056778,
        0.02593977004289627
      ]
    },
    {
      "children": [
        54
      ],
      "name": "DEF-thumb.02.R_044",
      "rotation": [
        0.10914930701255798,
        0.002076263539493084,
        -0.018903829157352448,
        0.9938434362411499
      ],
      "scale": [
        1.0,
        1.0000004768371582,
        1.0000001192092896
      ],
      "translation": [
        1.6763806343078613e-08,
        0.04703975468873978,
        1.1548399925231934e-07
      ]
    },
    {
      "name": "DEF-thumb.03.R_045",
      "rotation": [
        0.07538945227861404,
        -0.0008223980548791587,
        0.04878709092736244,
        0.9959596395492554
      ],
      "scale": [
        1.0000001192092896,
        0.9999989867210388,
        0.9999999403953552
      ],
      "translation": [
        2.7939677238464355e-08,
        0.04852043837308884,
        5.960464477539063e-08
      ]
    },
    {
      "children": [
        56
      ],
      "name": "DEF-thigh.L_046",
      "rotation": [
        0.988922655582428,
        0.04318615794181824,
        -0.11165132373571396,
        0.08775506168603897
      ],
      "scale": [
        1.0,
        1.0000001192092896,
        1.0
      ],
      "translation": [
        0.10472601652145386,
        -0.014430781826376915,
        0.017805099487304688
      ]
    },
    {
      "children": [
        57
      ],
      "name": "DEF-shin.L_047",
      "rotation": [
        0.06750505417585373,
        1.0867422872706811e-07,
        3.051221497685219e-08,
        0.9977189302444458
      ],
      "scale": [
        0.9999999403953552,
        0.9999998211860657,
        0.9999998807907104
      ],
      "translation": [
        4.656612873077393e-10,
        0.39258578419685364,
        5.3551048040390015e-09
      ]
    },
    {
      "children": [
        58
      ],
      "name": "DEF-foot.L_048",
      "rotation": [
        -0.46923983097076416,
        0.05598851293325424,
        0.0775209590792656,
        0.8778780102729797
      ],
      "scale": [
        0.9999999403953552,
        0.9999999403953552,
        0.9999998807907104
      ],
      "translation": [
        -1.4901161193847656e-08,
        0.38073664903640747,
        3.725290298461914e-09
      ]
    },
    {
      "name": "DEF-toe.L_049",
      "rotation": [
        -0.0231513362377882,
        0.9437549114227295,
        -0.32973507046699524,
        -0.008093013428151608
      ],
      "scale": [
        1.0000001192092896,
        0.9999995231628418,
        1.000002384185791
      ],
      "translation": [
        -1.7365149318493422e-09,
        0.19041945040225983,
        2.7755575615628914e-17
      ]
    },
    {
      "children": [
        60
      ],
      "name": "DEF-thigh.R_050",
      "rotation": [
        0.988922655582428,
        -0.04318615794181824,
        0.11165132373571396,
        0.08775506168603897
      ],
      "scale": [
        1.0,
        1.0000001192092896,
        1.0
      ],
      "translation": [
        -0.10472601652145386,
        -0.014430781826376915,
        0.017805099487304688
      ]
    },
    {
      "children": [
        61
      ],
      "name": "DEF-shin.R_051",
      "rotation": [
        0.06750506907701492,
        -1.0120660931534076e-07,
        -3.051221497685219e-08,
        0.9977189302444458
      ],
      "scale": [
        0.9999999403953552,
        0.9999998211860657,
        0.9999998211860657
      ],
      "translation": [
        -4.656612873077393e-10,
        0.39258578419685364,
        5.3551048040390015e-09
      ]
    },
    {
      "children": [
        62
      ],
      "name": "DEF-foot.R_052",
      "rotation": [
        -0.4692398011684418,
        -0.05598851665854454,
        -0.0775209590792656,
        0.8778780102729797
      ],
      "scale": [
        1.0,
        1.0,
        0.9999999403953552
      ],
      "translation": [
        9.313225746154785e-09,
        0.3807366192340851,
        -1.862645149230957e-09
      ]
    },
    {
      "name": "DEF-toe.R_053",
      "rotation": [
        0.0231513362377882,
        0.9437549114227295,
        -0.32973507046699524,
        0.008093013428151608
      ],
      "scale": [
        1.0000001192092896,
        0.9999995231628418,
        1.000002384185791
      ],
      "translation": [
        1.1194192239827316e-09,
        0.19041945040225983,
        1.3969838619232178e-09
      ]
    }
  ],
  "scene": 0,
  "scenes": [
    {
      "name": "Sketchfab_Scene",
      "nodes": [
        0
      ]
    }
  ],
  "skins": [
    {
      "inverseBindMatrices": 8,
      "joints": [
        5,
        9,
        10,
        11,
        12,
        13,
        14,
        15,
        16,
        17,
        18,
        19,
        20,
        21,
        22,
        23,
        24,
        25,
        26,
        27,
        28,
        29,
        30,
        31,
        32,
        33,
        34,
        35,
        36,
        37,
        38,
        39,
        40,
        41,
        42,
        43,
        44,
        45,
        46,
        47,
        48,
        49,
        50,
        51,
        52,
        53,
        54,
        55,
        56,
        57,
        58,
        59,
        60,
        61,
        62
      ],
      "skeleton": 5
    }
  ]
}
